<?xml version="1.0" standalone="no"?>
<!DOCTYPE svg PUBLIC "-//W3C//DTD SVG 20010904//EN"
 "http://www.w3.org/TR/2001/REC-SVG-20010904/DTD/svg10.dtd">
<svg version="1.0" xmlns="http://www.w3.org/2000/svg"
 width="512.000000pt" height="512.000000pt" viewBox="0 0 512.000000 512.000000"
 preserveAspectRatio="xMidYMid meet">
<metadata>
Created by potrace 1.14, written by Peter Selinger 2001-2017
</metadata>
<g transform="translate(0.000000,512.000000) scale(0.100000,-0.100000)"
fill="#000000" stroke="none">
<path d="M4280 5003 c-8 -3 -18 -11 -22 -17 -9 -13 -11 -152 -3 -144 12 12 92
-15 118 -40 l27 -26 55 19 c31 10 60 24 66 32 36 42 -65 144 -166 167 -16 4
-37 9 -45 11 -8 2 -22 1 -30 -2z"/>
<path d="M4000 4963 c-8 -3 -52 -19 -98 -36 -102 -36 -112 -51 -83 -118 31
-69 36 -71 116 -42 39 14 85 29 102 34 46 14 56 38 41 96 -15 62 -38 81 -78
66z"/>
<path d="M2495 4930 c-33 -4 -86 -10 -118 -14 -33 -4 -102 -16 -155 -27 -115
-24 -112 -24 -137 -31 -11 -4 -67 -21 -125 -39 -198 -60 -431 -174 -610 -297
-359 -247 -659 -600 -833 -979 -41 -89 -132 -340 -141 -390 -2 -10 -11 -45
-20 -78 -8 -33 -17 -73 -20 -90 -2 -16 -8 -50 -11 -75 -4 -25 -9 -53 -11 -63
-18 -97 -24 -402 -11 -542 27 -295 118 -611 252 -870 51 -101 46 -92 134 -229
35 -55 80 -121 100 -145 20 -25 45 -57 56 -70 73 -91 193 -213 282 -287 32
-27 60 -52 63 -55 14 -17 182 -135 260 -183 95 -59 329 -176 352 -176 8 0 18
-4 24 -9 13 -13 143 -55 274 -90 123 -32 249 -55 370 -68 138 -14 458 -8 570
12 254 44 368 74 553 147 415 163 776 440 1048 803 244 325 395 686 454 1085
3 19 9 64 14 100 5 36 8 169 6 295 -2 181 -7 256 -24 350 -113 638 -454 1188
-971 1567 -318 233 -688 377 -1135 443 -64 9 -424 13 -490 5z"/>
<path d="M4414 4619 c-17 -21 -65 -200 -59 -218 3 -9 27 -26 54 -37 70 -31 88
-19 118 76 33 103 39 153 21 168 -23 19 -122 27 -134 11z"/>
<path d="M310 1566 c-16 -21 -9 -59 15 -71 11 -6 33 -19 48 -29 32 -22 71 -11
79 21 7 25 -7 43 -53 71 -42 25 -72 28 -89 8z"/>
<path d="M197 1339 c-22 -13 -109 -195 -105 -218 4 -21 86 -62 117 -59 27 3
25 1 80 115 23 48 37 90 34 102 -3 11 -27 31 -54 45 -56 30 -49 28 -72 15z"/>
<path d="M25 900 c-14 -15 -18 -40 -20 -112 -5 -158 14 -184 106 -146 54 23
60 34 56 108 -2 25 0 62 3 82 9 46 -6 62 -70 77 -58 14 -54 14 -75 -9z"/>
<path d="M748 729 c-110 -55 -113 -61 -75 -139 20 -41 25 -45 55 -42 37 2 181
72 201 96 11 13 9 25 -14 71 -14 30 -30 55 -35 55 -5 0 -14 2 -22 4 -7 2 -57
-18 -110 -45z"/>
<path d="M428 614 c-3 -3 -39 -8 -80 -10 -40 -3 -78 -7 -84 -9 -17 -5 -47
-101 -39 -124 11 -34 71 -43 187 -27 97 14 107 26 88 107 -9 38 -18 53 -37 60
-29 11 -28 11 -35 3z"/>
</g>
</svg>
